<svg xmlns="http://www.w3.org/2000/svg" xmlns:xlink="http://www.w3.org/1999/xlink" width="200" zoomAndPan="magnify" viewBox="0 0 150 44.999999" height="60" preserveAspectRatio="xMidYMid meet" version="1.0"><defs><g/><clipPath id="9d1ffcef81"><path d="M 0 0 L 45 0 L 45 45 L 0 45 Z M 0 0 " clip-rule="nonzero"/></clipPath><clipPath id="55994ecf37"><path d="M 1.800781 0 L 43.199219 0 C 43.675781 0 44.136719 0.191406 44.472656 0.527344 C 44.808594 0.863281 45 1.324219 45 1.800781 L 45 43.199219 C 45 43.675781 44.808594 44.136719 44.472656 44.472656 C 44.136719 44.808594 43.675781 45 43.199219 45 L 1.800781 45 C 0.804688 45 0 44.195312 0 43.199219 L 0 1.800781 C 0 0.804688 0.804688 0 1.800781 0 Z M 1.800781 0 " clip-rule="nonzero"/></clipPath></defs><g clip-path="url(#9d1ffcef81)"><g clip-path="url(#55994ecf37)"><path fill="#3e74db" d="M 0 0 L 45 0 L 45 45 L 0 45 Z M 0 0 " fill-opacity="1" fill-rule="nonzero"/></g></g><g fill="#545353" fill-opacity="1"><g transform="translate(49.910864, 28.874998)"><g><path d="M 0.96875 -12.59375 L 10.046875 -12.59375 L 10.046875 -10.328125 L 6.703125 -10.328125 L 6.703125 0 L 4.3125 0 L 4.3125 -10.328125 L 0.96875 -10.328125 Z M 0.96875 -12.59375 "/></g></g></g><g fill="#545353" fill-opacity="1"><g transform="translate(60.926832, 28.874998)"><g><path d="M 7.1875 -1.296875 C 6.945312 -0.734375 6.609375 -0.332031 6.171875 -0.09375 C 5.742188 0.132812 5.238281 0.25 4.65625 0.25 C 4.125 0.25 3.617188 0.148438 3.140625 -0.046875 C 2.671875 -0.253906 2.253906 -0.554688 1.890625 -0.953125 C 1.523438 -1.347656 1.238281 -1.828125 1.03125 -2.390625 C 0.820312 -2.953125 0.71875 -3.59375 0.71875 -4.3125 L 0.71875 -4.609375 C 0.71875 -5.316406 0.816406 -5.953125 1.015625 -6.515625 C 1.222656 -7.078125 1.5 -7.554688 1.84375 -7.953125 C 2.195312 -8.347656 2.601562 -8.648438 3.0625 -8.859375 C 3.53125 -9.078125 4.023438 -9.1875 4.546875 -9.1875 C 5.191406 -9.1875 5.707031 -9.078125 6.09375 -8.859375 C 6.476562 -8.640625 6.785156 -8.300781 7.015625 -7.84375 L 7.34375 -7.84375 L 7.34375 -8.921875 L 9.609375 -8.921875 L 9.609375 -2.703125 C 9.609375 -2.335938 9.769531 -2.15625 10.09375 -2.15625 L 10.4375 -2.15625 L 10.4375 0 L 8.890625 0 C 8.484375 0 8.148438 -0.117188 7.890625 -0.359375 C 7.628906 -0.597656 7.5 -0.910156 7.5 -1.296875 Z M 5.171875 -1.90625 C 5.828125 -1.90625 6.351562 -2.125 6.75 -2.5625 C 7.144531 -3 7.34375 -3.597656 7.34375 -4.359375 L 7.34375 -4.578125 C 7.34375 -5.328125 7.144531 -5.921875 6.75 -6.359375 C 6.351562 -6.796875 5.828125 -7.015625 5.171875 -7.015625 C 4.503906 -7.015625 3.972656 -6.796875 3.578125 -6.359375 C 3.179688 -5.921875 2.984375 -5.328125 2.984375 -4.578125 L 2.984375 -4.359375 C 2.984375 -3.597656 3.179688 -3 3.578125 -2.5625 C 3.972656 -2.125 4.503906 -1.90625 5.171875 -1.90625 Z M 5.171875 -1.90625 "/></g></g></g><g fill="#545353" fill-opacity="1"><g transform="translate(71.942799, 28.874998)"><g><path d="M 4.25 -6.40625 C 4.25 -6.113281 4.394531 -5.90625 4.6875 -5.78125 C 4.988281 -5.65625 5.539062 -5.550781 6.34375 -5.46875 C 7.25 -5.375 7.988281 -5.101562 8.5625 -4.65625 C 9.144531 -4.207031 9.4375 -3.578125 9.4375 -2.765625 L 9.4375 -2.65625 C 9.4375 -1.769531 9.109375 -1.0625 8.453125 -0.53125 C 7.804688 -0.0078125 6.894531 0.25 5.71875 0.25 C 5.03125 0.25 4.4375 0.160156 3.9375 -0.015625 C 3.445312 -0.191406 3.039062 -0.414062 2.71875 -0.6875 C 2.394531 -0.957031 2.144531 -1.257812 1.96875 -1.59375 C 1.789062 -1.925781 1.675781 -2.25 1.625 -2.5625 L 3.703125 -3.234375 C 3.804688 -2.847656 4.007812 -2.507812 4.3125 -2.21875 C 4.613281 -1.9375 5.082031 -1.796875 5.71875 -1.796875 C 6.28125 -1.796875 6.664062 -1.882812 6.875 -2.0625 C 7.09375 -2.238281 7.203125 -2.425781 7.203125 -2.625 C 7.203125 -2.75 7.171875 -2.859375 7.109375 -2.953125 C 7.054688 -3.054688 6.957031 -3.15625 6.8125 -3.25 C 6.675781 -3.34375 6.484375 -3.414062 6.234375 -3.46875 C 5.992188 -3.53125 5.6875 -3.582031 5.3125 -3.625 C 4.300781 -3.707031 3.5 -3.96875 2.90625 -4.40625 C 2.3125 -4.84375 2.015625 -5.488281 2.015625 -6.34375 L 2.015625 -6.4375 C 2.015625 -6.882812 2.109375 -7.273438 2.296875 -7.609375 C 2.492188 -7.953125 2.75 -8.238281 3.0625 -8.46875 C 3.375 -8.695312 3.734375 -8.875 4.140625 -9 C 4.546875 -9.125 4.96875 -9.1875 5.40625 -9.1875 C 5.96875 -9.1875 6.453125 -9.113281 6.859375 -8.96875 C 7.273438 -8.832031 7.628906 -8.648438 7.921875 -8.421875 C 8.210938 -8.203125 8.445312 -7.957031 8.625 -7.6875 C 8.800781 -7.425781 8.9375 -7.164062 9.03125 -6.90625 L 6.984375 -6.078125 C 6.878906 -6.398438 6.691406 -6.65625 6.421875 -6.84375 C 6.160156 -7.03125 5.820312 -7.125 5.40625 -7.125 C 5.019531 -7.125 4.726562 -7.054688 4.53125 -6.921875 C 4.34375 -6.785156 4.25 -6.613281 4.25 -6.40625 Z M 4.25 -6.40625 "/></g></g></g><g fill="#545353" fill-opacity="1"><g transform="translate(82.958767, 28.874998)"><g><path d="M 4.390625 -5.65625 L 4.828125 -5.65625 L 7.203125 -8.921875 L 9.6875 -8.921875 L 9.6875 -8.8125 L 6.796875 -4.734375 L 6.796875 -4.40625 L 9.96875 -0.109375 L 9.96875 0 L 7.375 0 L 4.828125 -3.484375 L 4.390625 -3.484375 L 4.390625 0 L 2.125 0 L 2.125 -12.59375 L 4.390625 -12.59375 Z M 4.390625 -5.65625 "/></g></g></g><g fill="#545353" fill-opacity="1"><g transform="translate(93.974735, 28.874998)"><g><path d="M 1.34375 -2.15625 L 4.484375 -2.15625 L 4.484375 -10.4375 L 1.453125 -10.4375 L 1.453125 -12.59375 L 6.75 -12.59375 L 6.75 -2.15625 L 9.671875 -2.15625 L 9.671875 0 L 1.34375 0 Z M 1.34375 -2.15625 "/></g></g></g><g fill="#545353" fill-opacity="1"><g transform="translate(104.990702, 28.874998)"><g><path d="M 7.453125 -8.921875 L 9.71875 -8.921875 L 9.71875 2.203125 C 9.71875 2.609375 9.585938 2.941406 9.328125 3.203125 C 9.078125 3.460938 8.742188 3.59375 8.328125 3.59375 L 3.03125 3.59375 L 3.03125 1.4375 L 6.96875 1.4375 C 7.289062 1.4375 7.453125 1.257812 7.453125 0.90625 L 7.453125 -1.296875 L 7.125 -1.296875 C 6.726562 -0.265625 5.878906 0.25 4.578125 0.25 C 4.128906 0.25 3.710938 0.175781 3.328125 0.03125 C 2.941406 -0.113281 2.601562 -0.332031 2.3125 -0.625 C 2.03125 -0.925781 1.804688 -1.300781 1.640625 -1.75 C 1.484375 -2.207031 1.40625 -2.738281 1.40625 -3.34375 L 1.40625 -8.921875 L 3.671875 -8.921875 L 3.671875 -3.8125 C 3.671875 -3.175781 3.820312 -2.679688 4.125 -2.328125 C 4.425781 -1.972656 4.875 -1.796875 5.46875 -1.796875 C 6.15625 -1.796875 6.65625 -2.015625 6.96875 -2.453125 C 7.289062 -2.890625 7.453125 -3.488281 7.453125 -4.25 Z M 7.453125 -8.921875 "/></g></g></g><g fill="#000000" fill-opacity="1"><g transform="translate(4.137504, 30.091302)"><g><path d="M 2.90625 -3.90625 L 2.90625 -7.5 L 13.109375 -10.234375 L 13.109375 -10.765625 L 2.90625 -13.5 L 2.90625 -17.09375 L 15.453125 -13.625 L 15.453125 -7.375 Z M 2.90625 -3.90625 "/></g></g></g><g fill="#000000" fill-opacity="1"><g transform="translate(22.497488, 30.091302)"><g><path d="M 1.828125 1.4375 L 16.53125 1.4375 L 16.53125 4.859375 L 1.828125 4.859375 Z M 1.828125 1.4375 "/></g></g></g></svg>